<svg xmlns="http://www.w3.org/2000/svg" width="144.262" height="135.245" viewBox="0 0 144.262 135.245">
  <g id="no-content" transform="translate(0 -16)">
    <g id="Group_250" data-name="Group 250" transform="translate(2.818 18.817)">
      <path id="Path_56" data-name="Path 56" d="M262,40.087h67.622V31.634A5.652,5.652,0,0,0,323.989,26H267.636A5.652,5.652,0,0,0,262,31.634v8.453Z" transform="translate(-190.997 -25.999)" fill="#ffda8f" fill-rule="evenodd"/>
      <path id="Path_57" data-name="Path 57" d="M203.624,81.635A5.652,5.652,0,0,0,197.989,76H141.637A5.652,5.652,0,0,0,136,81.635v8.453h67.622V81.635Z" transform="translate(-100.5 -61.912)" fill="#ffc144" fill-rule="evenodd"/>
      <path id="Path_58" data-name="Path 58" d="M45.5,140.089V126H15.635A5.652,5.652,0,0,0,10,131.636v8.453Z" transform="translate(-10 -97.824)" fill="#ffda8f" fill-rule="evenodd"/>
      <path id="Path_59" data-name="Path 59" d="M45.5,176H10v81.71a5.652,5.652,0,0,0,5.635,5.635H71.987a5.652,5.652,0,0,0,5.635-5.635v-8.453H51.137a5.652,5.652,0,0,1-5.635-5.635V176Z" transform="translate(-10 -133.737)" fill="#e3eaef" fill-rule="evenodd"/>
      <path id="Path_60" data-name="Path 60" d="M136,140.089v67.622a5.652,5.652,0,0,0,5.635,5.635h56.352a5.652,5.652,0,0,0,5.635-5.635V126H136Z" transform="translate(-100.499 -97.824)" fill="#fff" fill-rule="evenodd"/>
      <path id="Path_61" data-name="Path 61" d="M361.636,90.088v73.257H391.5a5.652,5.652,0,0,0,5.635-5.635V76H356a5.652,5.652,0,0,1,5.635,5.635Z" transform="translate(-258.512 -61.912)" fill="#e3eaef" fill-rule="evenodd"/>
    </g>
    <g id="Group_251" data-name="Group 251" transform="translate(0 16)">
      <path id="Path_62" data-name="Path 62" d="M135.809,16H79.457A8.462,8.462,0,0,0,71,24.453v5.635H43.955A8.462,8.462,0,0,0,35.5,38.541v5.636H8.453A8.462,8.462,0,0,0,0,52.629v90.164a8.462,8.462,0,0,0,8.453,8.453H64.8a8.462,8.462,0,0,0,8.453-8.453v-5.635h27.049a8.462,8.462,0,0,0,8.453-8.453v-5.635h27.049a8.462,8.462,0,0,0,8.453-8.453V24.453A8.463,8.463,0,0,0,135.809,16Zm-59.17,8.453a2.821,2.821,0,0,1,2.818-2.818h56.352a2.821,2.821,0,0,1,2.818,2.818v5.635H76.639ZM8.453,49.812H35.5v8.453H5.635V52.629a2.821,2.821,0,0,1,2.818-2.817Zm59.17,92.981A2.821,2.821,0,0,1,64.8,145.61H8.453a2.821,2.821,0,0,1-2.818-2.818V63.9H35.5V80.805H20.569a2.818,2.818,0,1,0,0,5.635H35.5v5.635H20.569a2.818,2.818,0,1,0,0,5.635H35.5v5.635H20.569a2.818,2.818,0,1,0,0,5.635H35.5v5.635H20.569a2.818,2.818,0,0,0,0,5.635H35.5v5.635H20.569a2.818,2.818,0,0,0,0,5.635H35.5a2.831,2.831,0,0,0,.469-.039,8.467,8.467,0,0,0,7.983,5.674H67.623v5.635Zm32.684-11.271H43.955a2.821,2.821,0,0,1-2.818-2.818V49.812H59.451a2.818,2.818,0,1,0,0-5.635H41.137V38.541a2.821,2.821,0,0,1,2.818-2.817h56.352a2.821,2.821,0,0,1,2.818,2.817v5.636H84.809a2.818,2.818,0,0,0,0,5.635h18.315V128.7A2.821,2.821,0,0,1,100.307,131.522Zm38.319-16.906a2.821,2.821,0,0,1-2.818,2.818H108.759V103.346h14.933a2.818,2.818,0,0,0,0-5.635H108.759V92.075h14.933a2.818,2.818,0,1,0,0-5.635H108.759V80.8h14.933a2.818,2.818,0,0,0,0-5.635H108.759V69.535h14.933a2.818,2.818,0,1,0,0-5.635H108.759V58.264h14.933a2.818,2.818,0,1,0,0-5.635H108.759V38.541a8.418,8.418,0,0,0-.483-2.817h30.35Z" transform="translate(0 -16)"/>
      <path id="Path_63" data-name="Path 63" d="M224.631,301.14A16.13,16.13,0,0,0,213.15,305.9a2.818,2.818,0,1,0,3.985,3.985,10.6,10.6,0,0,1,14.992,0,2.818,2.818,0,1,0,3.985-3.985A16.129,16.129,0,0,0,224.631,301.14Z" transform="translate(-152.5 -220.799)"/>
      <path id="Path_64" data-name="Path 64" d="M190.279,240.174a2.818,2.818,0,1,0,3.985-3.985l-2.234-2.234,2.234-2.234a2.818,2.818,0,0,0-3.985-3.985l-2.234,2.234-2.234-2.234a2.818,2.818,0,0,0-3.985,3.985l2.234,2.234-2.234,2.234a2.818,2.818,0,1,0,3.985,3.985l2.234-2.234Z" transform="translate(-130.002 -167.484)"/>
      <path id="Path_65" data-name="Path 65" d="M294.264,227.738a2.819,2.819,0,0,0-3.985,0l-2.234,2.234-2.234-2.234a2.818,2.818,0,0,0-3.985,3.985l2.234,2.234-2.234,2.234a2.818,2.818,0,1,0,3.985,3.985l2.234-2.234,2.234,2.234a2.818,2.818,0,0,0,3.985-3.985l-2.234-2.234,2.234-2.234a2.817,2.817,0,0,0,0-3.985Z" transform="translate(-201.826 -167.486)"/>
      <path id="Path_66" data-name="Path 66" d="M248.816,121.637a2.818,2.818,0,1,0,0-5.635h0a2.818,2.818,0,0,0,0,5.635Z" transform="translate(-176.686 -87.825)"/>
    </g>
  </g>
</svg>
