<svg xmlns="http://www.w3.org/2000/svg" width="24.062" height="20.335" viewBox="0 0 24.062 20.335">
  <g id="refresh" transform="translate(0 -39.691)">
    <path id="Path_67" data-name="Path 67" d="M7.141,51.294a.592.592,0,0,0-.446-.981H5.173c-.01-.15-.015-.3-.015-.455a6.869,6.869,0,0,1,11.582-5l2.145-2.509A10.167,10.167,0,0,0,1.863,49.858c0,.152,0,.3.01.455H.593a.592.592,0,0,0-.446.981l2.89,3.315.607.7,2.179-2.5Z" transform="translate(0)" fill="#43f3ff"/>
    <path id="Path_68" data-name="Path 68" d="M139.2,164.2l-2.156-2.473-1.342-1.539-1.915,2.2L132.2,164.2a.592.592,0,0,0,.446.981h1.519a6.868,6.868,0,0,1-11.062,4.948l-2.145,2.509a10.168,10.168,0,0,0,16.507-7.457h1.282A.592.592,0,0,0,139.2,164.2Z" transform="translate(-115.281 -114.836)" fill="#43f3ff"/>
  </g>
</svg>
