<svg xmlns="http://www.w3.org/2000/svg" width="11.227" height="13.337" viewBox="0 0 11.227 13.337">
  <path id="copy" d="M7.059,13.337H2.084A2.086,2.086,0,0,1,0,11.253V4.194A2.086,2.086,0,0,1,2.084,2.11H7.059A2.086,2.086,0,0,1,9.143,4.194v7.059A2.086,2.086,0,0,1,7.059,13.337ZM2.084,3.152A1.043,1.043,0,0,0,1.042,4.194v7.059A1.043,1.043,0,0,0,2.084,12.3H7.059A1.043,1.043,0,0,0,8.1,11.253V4.194A1.043,1.043,0,0,0,7.059,3.152Zm9.143,6.8V2.084A2.086,2.086,0,0,0,9.143,0H3.36a.521.521,0,0,0,0,1.042H9.143a1.043,1.043,0,0,1,1.042,1.042V9.951a.521.521,0,1,0,1.042,0Zm0,0" fill="#43f3ff"/>
</svg>
