<svg xmlns="http://www.w3.org/2000/svg" width="29.144" height="31.384" viewBox="0 0 29.144 31.384">
  <path id="crystal" d="M35.032,30.005,33.35,27.763a.568.568,0,0,0-.24-.184l-2.341-.937,2.113-7.927a.561.561,0,0,0-.04-.4l-2.8-5.6a.561.561,0,0,0-.813-.216l-2.85,1.9.358-5.883a.56.56,0,0,0-.255-.5L20.41,4.09a.56.56,0,0,0-.673.048L14.6,8.621a.56.56,0,0,0-.189.476l.607,6.293-3.671-2.336a.56.56,0,0,0-.793.2L7.189,19.424a.56.56,0,0,0-.04.446l2.683,8.049L6.2,31.036a.56.56,0,0,0-.066.784l2.8,3.363a.56.56,0,0,0,.627.166l4.307-1.615L19.29,35.36a.577.577,0,0,0,.207.022l6.725-.56a.559.559,0,0,0,.42-.248l.925-1.388,3.573.511a.554.554,0,0,0,.438-.124l3.363-2.8A.558.558,0,0,0,35.032,30.005ZM22.094,31.317l-.869-3.478,1.549-.775,3,2,.638.958ZM19.25,34.179l-4.689-1.407.761-2.283,5.431,1.81Zm-1.3-6.593,2.161.432.787,3.149-4.9-1.632ZM22.071,8.432l-.887-2.509,3.4,2.195Zm-.986.574L20.3,10.574l-4.275-1.71,3.827-3.339ZM16.709,18.5,17.2,26.76l-1.864,1.863L13.9,20.5Zm-3.131.859-1.5-4.508,4.132,2.63Zm-1.1.253-3.9-.39,2.342-4.293Zm.327,1.16,1.437,8.143-3.314-1.243L8.487,20.337ZM10.6,28.741l3.668,1.375-.718,2.154-2.752-1.835a.56.56,0,0,0-.39-.089l-2.018.288Zm18.279-9.108,2.706-.387-1.953,7.325-2.652,1.137Zm.233-1.165.681-3.746,1.7,3.405Zm-1.083-.3-2.544-1.817,3.27-2.18ZM24.9,17.308l2.886,2.062-1.971,8.376-2.389-1.593ZM27.858,30.9h2.8v1.6l-2.8-.4Zm3.083-1.121H27.6l-.581-.872,3.09-1.324,1.908.763ZM24.184,15.864a.561.561,0,0,0-.242.374l-1.634,9.807-1.175.588V11.418l.928-1.856,3.516-.439-.367,6.058Zm-8.57-5.957,4.4,1.759v15.19L18.3,26.514l-.535-9.1a.56.56,0,0,0-.258-.44l-1.294-.823ZM9.538,34.16l-1.9-2.286,2.717-.388L12.625,33Zm16.322-.432-5.158.43,1.319-1.649,4.716-1.415v1.319Zm5.921-1.781V30.528L32.9,29.033l.914,1.218Z" transform="translate(-6 -4)" fill="#43f3ff"/>
</svg>
