<svg id="information-button" xmlns="http://www.w3.org/2000/svg" width="12.942" height="12.942" viewBox="0 0 12.942 12.942">
  <path id="Path_51" data-name="Path 51" d="M6.471,0a6.471,6.471,0,1,0,6.471,6.471A6.471,6.471,0,0,0,6.471,0ZM7.818,10.029q-.5.2-.8.3a2.1,2.1,0,0,1-.691.1,1.378,1.378,0,0,1-.941-.3.953.953,0,0,1-.335-.749,2.72,2.72,0,0,1,.025-.361c.017-.123.044-.261.081-.416l.417-1.473c.037-.141.068-.276.094-.4a1.776,1.776,0,0,0,.037-.347A.534.534,0,0,0,5.591,6a.66.66,0,0,0-.445-.11,1.169,1.169,0,0,0-.331.049c-.112.035-.21.066-.29.1l.11-.454q.409-.167.783-.285a2.314,2.314,0,0,1,.707-.119,1.352,1.352,0,0,1,.927.29.965.965,0,0,1,.325.754q0,.1-.022.338A2.262,2.262,0,0,1,7.271,7L6.857,8.471c-.034.118-.064.253-.091.4a2.132,2.132,0,0,0-.04.343.493.493,0,0,0,.131.4.733.733,0,0,0,.453.106,1.314,1.314,0,0,0,.343-.053,1.95,1.95,0,0,0,.277-.093ZM7.745,4.07a.99.99,0,0,1-.7.27,1,1,0,0,1-.7-.27.86.86,0,0,1-.292-.654.869.869,0,0,1,.292-.655.993.993,0,0,1,.7-.272.982.982,0,0,1,.7.272.883.883,0,0,1,0,1.309Z" fill="#025962"/>
</svg>
