<svg xmlns="http://www.w3.org/2000/svg" width="29.904" height="29.909" viewBox="0 0 29.904 29.909">
  <path id="wallet-passes-app" d="M28.774,8.24a1.168,1.168,0,0,0,1.168-1.168V5.845A5.852,5.852,0,0,0,24.1,0S5.786,0,5.741.008A5.963,5.963,0,0,0,1.652,1.842,5.758,5.758,0,0,0,.041,6.047c0,.03,0,16.848,0,16.848a7.021,7.021,0,0,0,7.013,7.013H24.1a5.852,5.852,0,0,0,5.845-5.845V15.195A5.852,5.852,0,0,0,24.1,9.349H5.878a3.5,3.5,0,0,1-3.5-3.337,3.443,3.443,0,0,1,.964-2.558,3.615,3.615,0,0,1,2.6-1.114l18.152,0a3.513,3.513,0,0,1,3.509,3.509V7.072A1.168,1.168,0,0,0,28.774,8.24Zm-22.9,3.446H24.1a3.513,3.513,0,0,1,3.509,3.509v8.869A3.513,3.513,0,0,1,24.1,27.572H7.051A4.682,4.682,0,0,1,2.374,22.9V10.522a5.825,5.825,0,0,0,3.5,1.163Zm19.391,7.943a1.46,1.46,0,1,1-1.46-1.46A1.46,1.46,0,0,1,25.269,19.629Zm0-13.784A1.168,1.168,0,0,0,24.1,4.677H5.878a1.168,1.168,0,0,0,0,2.336H24.1A1.168,1.168,0,0,0,25.269,5.845Z" transform="translate(-0.038)" fill="#43f3ff"/>
</svg>
