<svg xmlns="http://www.w3.org/2000/svg" width="34" height="34" viewBox="0 0 34 34">
  <path id="email" d="M17,0A17,17,0,1,0,34,17,17.019,17.019,0,0,0,17,0Zm0,32.406A15.406,15.406,0,1,1,32.406,17,15.424,15.424,0,0,1,17,32.406ZM24.989,9.994H9.01a1.94,1.94,0,0,0-1.938,1.938V22.068A1.94,1.94,0,0,0,9.01,24.006H24.989a1.94,1.94,0,0,0,1.938-1.938V11.932A1.94,1.94,0,0,0,24.989,9.994Zm-1.2,1.594L17,16.979l-6.788-5.391Zm1.2,10.824H9.01a.345.345,0,0,1-.345-.345V12.4L16.5,18.62a.8.8,0,0,0,.991,0L25.334,12.4v9.672a.345.345,0,0,1-.345.345Z" fill="#15a4c6"/>
</svg>
