<svg xmlns="http://www.w3.org/2000/svg" width="32.945" height="32.945" viewBox="0 0 32.945 32.945">
  <g id="Layer_2" data-name="Layer 2" transform="translate(-0.989 -0.999)">
    <path id="Path_52" data-name="Path 52" d="M16.589,18.177a6.589,6.589,0,1,1,6.589-6.589,6.589,6.589,0,0,1-6.589,6.589Zm0-10.981a4.392,4.392,0,1,0,4.392,4.392A4.392,4.392,0,0,0,16.589,7.2Z" transform="translate(0.884 0.393)" fill="#15a4c6"/>
    <path id="Path_53" data-name="Path 53" d="M17.188,32.2A16.472,16.472,0,0,1,4.461,26.172l-.571-.7.571-.692a16.472,16.472,0,0,1,25.454,0l.571.692-.571.7A16.472,16.472,0,0,1,17.188,32.2ZM6.767,25.48a14.275,14.275,0,0,0,20.864,0,14.275,14.275,0,0,0-20.864,0Z" transform="translate(0.285 1.743)" fill="#15a4c6"/>
    <path id="Path_54" data-name="Path 54" d="M17.473,33.944A16.472,16.472,0,1,1,30.2,27.915a16.472,16.472,0,0,1-12.727,6.029Zm0-30.747A14.275,14.275,0,1,0,31.748,17.472,14.275,14.275,0,0,0,17.473,3.2Z" transform="translate(0 0)" fill="#15a4c6"/>
  </g>
</svg>
